<svg xmlns="http://www.w3.org/2000/svg" xmlns:xlink="http://www.w3.org/1999/xlink" width="50" zoomAndPan="magnify" viewBox="0 0 37.5 37.499999" height="50" preserveAspectRatio="xMidYMid meet" version="1.0"><defs><clipPath id="fde500b7ae"><path d="M 1.109375 1.109375 L 35.894531 1.109375 L 35.894531 35.894531 L 1.109375 35.894531 Z M 1.109375 1.109375 " clip-rule="nonzero"/></clipPath></defs><g clip-path="url(#fde500b7ae)"><path fill="#ed1c24" d="M 18.503906 35.894531 C 8.910156 35.894531 1.109375 28.09375 1.109375 18.503906 C 1.109375 8.910156 8.910156 1.109375 18.503906 1.109375 C 28.09375 1.109375 35.894531 8.910156 35.894531 18.503906 C 35.894531 28.09375 28.09375 35.894531 18.503906 35.894531 Z M 18.503906 3.828125 C 10.410156 3.828125 3.828125 10.410156 3.828125 18.503906 C 3.828125 26.597656 10.410156 33.179688 18.503906 33.179688 C 26.597656 33.179688 33.171875 26.589844 33.171875 18.503906 C 33.171875 10.417969 26.589844 3.828125 18.503906 3.828125 Z M 18.503906 3.828125 " fill-opacity="1" fill-rule="nonzero"/></g><path fill="#ed1c24" d="M 21.425781 18.503906 L 26.929688 24.007812 L 24.007812 26.929688 L 18.503906 21.425781 L 13 26.929688 L 10.078125 24.007812 L 15.582031 18.503906 L 10.078125 13 L 13 10.078125 L 18.503906 15.582031 L 24.007812 10.078125 L 26.929688 13 Z M 21.425781 18.503906 " fill-opacity="1" fill-rule="nonzero"/></svg>