<svg xmlns="http://www.w3.org/2000/svg" xmlns:xlink="http://www.w3.org/1999/xlink" width="50" zoomAndPan="magnify" viewBox="0 0 37.5 37.499999" height="50" preserveAspectRatio="xMidYMid meet" version="1.0"><defs><clipPath id="66673d314f"><path d="M 0.878906 2.738281 L 36.40625 2.738281 L 36.40625 34.5625 L 0.878906 34.5625 Z M 0.878906 2.738281 " clip-rule="nonzero"/></clipPath></defs><g clip-path="url(#66673d314f)"><path fill="#00bf15" d="M 32.640625 18.65625 C 32.640625 27.441406 25.53125 34.5625 16.757812 34.5625 C 7.988281 34.5625 0.878906 27.433594 0.878906 18.65625 C 0.878906 9.882812 7.988281 2.753906 16.757812 2.753906 C 18.894531 2.75 20.945312 3.164062 22.914062 3.992188 C 24.882812 4.820312 26.617188 6.003906 28.105469 7.535156 L 25.738281 9.90625 C 24.570312 8.699219 23.210938 7.765625 21.667969 7.109375 C 20.125 6.449219 18.511719 6.117188 16.832031 6.109375 C 9.953125 6.066406 4.28125 11.664062 4.230469 18.5625 C 4.226562 19.007812 4.246094 19.449219 4.289062 19.894531 C 4.335938 20.335938 4.402344 20.773438 4.492188 21.210938 C 4.582031 21.644531 4.695312 22.074219 4.832031 22.496094 C 4.96875 22.921875 5.128906 23.335938 5.308594 23.742188 C 5.488281 24.148438 5.691406 24.542969 5.910156 24.929688 C 6.132812 25.3125 6.375 25.6875 6.636719 26.046875 C 6.898438 26.40625 7.179688 26.75 7.476562 27.078125 C 7.777344 27.40625 8.089844 27.71875 8.421875 28.015625 C 8.753906 28.3125 9.101562 28.589844 9.460938 28.847656 C 9.824219 29.105469 10.195312 29.347656 10.582031 29.566406 C 10.96875 29.785156 11.367188 29.984375 11.773438 30.160156 C 12.179688 30.335938 12.59375 30.492188 13.019531 30.625 C 13.441406 30.757812 13.871094 30.867188 14.308594 30.953125 C 14.742188 31.039062 15.183594 31.105469 15.625 31.144531 C 16.066406 31.183594 16.507812 31.203125 16.953125 31.195312 C 17.398438 31.1875 17.839844 31.15625 18.28125 31.101562 C 18.722656 31.050781 19.15625 30.972656 19.589844 30.871094 C 20.023438 30.769531 20.449219 30.648438 20.867188 30.5 C 21.289062 30.355469 21.699219 30.1875 22.101562 30 C 22.5 29.808594 22.890625 29.597656 23.269531 29.367188 C 23.648438 29.136719 24.015625 28.886719 24.367188 28.613281 C 24.722656 28.34375 25.058594 28.058594 25.382812 27.75 C 25.703125 27.445312 26.007812 27.121094 26.296875 26.785156 C 26.582031 26.445312 26.851562 26.09375 27.105469 25.726562 C 27.355469 25.359375 27.585938 24.976562 27.792969 24.585938 C 28.003906 24.195312 28.195312 23.792969 28.359375 23.382812 C 28.527344 22.96875 28.671875 22.550781 28.796875 22.121094 C 28.917969 21.695312 29.019531 21.261719 29.097656 20.824219 C 29.175781 20.386719 29.226562 19.945312 29.257812 19.503906 C 29.289062 19.058594 29.296875 18.613281 29.277344 18.171875 C 29.261719 17.726562 29.222656 17.285156 29.15625 16.84375 C 29.09375 16.402344 29.007812 15.96875 28.898438 15.535156 L 31.554688 12.875 C 32.277344 14.734375 32.640625 16.660156 32.640625 18.65625 Z M 17.550781 19.246094 L 13.746094 15.4375 C 13.527344 15.21875 13.289062 15.019531 13.03125 14.847656 C 12.773438 14.675781 12.503906 14.53125 12.214844 14.414062 C 11.929688 14.292969 11.636719 14.203125 11.332031 14.144531 C 11.027344 14.082031 10.722656 14.054688 10.410156 14.054688 C 10.101562 14.054688 9.796875 14.082031 9.492188 14.144531 C 9.1875 14.203125 8.894531 14.292969 8.605469 14.414062 C 8.320312 14.53125 8.050781 14.675781 7.792969 14.847656 C 7.535156 15.019531 7.296875 15.21875 7.078125 15.4375 L 14.210938 22.585938 L 16.816406 25.191406 C 16.914062 25.289062 17.023438 25.363281 17.152344 25.417969 C 17.277344 25.46875 17.410156 25.496094 17.546875 25.496094 C 17.683594 25.496094 17.816406 25.46875 17.941406 25.417969 C 18.070312 25.363281 18.179688 25.289062 18.277344 25.191406 L 20.882812 22.585938 L 36.40625 7.035156 C 36.1875 6.816406 35.949219 6.621094 35.691406 6.449219 C 35.433594 6.277344 35.160156 6.132812 34.875 6.011719 C 34.589844 5.894531 34.292969 5.804688 33.988281 5.742188 C 33.6875 5.683594 33.378906 5.652344 33.070312 5.652344 C 32.761719 5.652344 32.453125 5.683594 32.148438 5.742188 C 31.84375 5.804688 31.550781 5.894531 31.265625 6.011719 C 30.976562 6.132812 30.707031 6.277344 30.449219 6.449219 C 30.191406 6.621094 29.953125 6.816406 29.734375 7.035156 Z M 17.550781 19.246094 " fill-opacity="1" fill-rule="nonzero"/></g></svg>